<svg width="154" height="48" viewBox="0 0 154 48" fill="none" xmlns="http://www.w3.org/2000/svg">
<g clip-path="url(#clip0)">
<path fill-rule="evenodd" clip-rule="evenodd" d="M41.7252 17.7922C42.8536 16.4067 44.4222 16.3999 44.4222 16.3999C44.4222 16.3999 44.6555 17.7025 43.5346 18.9576C42.3376 20.2976 40.9773 20.0784 40.9773 20.0784C40.9773 20.0784 40.7217 19.0244 41.7252 17.7922Z" fill="#C7CBCF"/>
<path fill-rule="evenodd" clip-rule="evenodd" d="M41.1201 20.9919C41.7007 20.9919 42.7778 20.2485 44.1802 20.2485C46.594 20.2485 47.5436 21.8487 47.5436 21.8487C47.5436 21.8487 45.6864 22.7334 45.6864 24.8801C45.6864 27.3016 48.0001 28.1362 48.0001 28.1362C48.0001 28.1362 46.3827 32.3774 44.1983 32.3774C43.1948 32.3774 42.415 31.7474 41.3576 31.7474C40.2802 31.7474 39.2113 32.4008 38.515 32.4008C36.5202 32.4011 34.0001 28.378 34.0001 25.144C34.0001 21.9623 36.1331 20.2932 38.1339 20.2932C39.4347 20.293 40.4442 20.9919 41.1201 20.9919Z" fill="#C7CBCF"/>
</g>
<path d="M65.4521 18.4879H66.5581L70.7721 28.3999H69.4001L68.3921 25.9639H63.4361L62.4141 28.3999H61.0841L65.4521 18.4879ZM65.9841 19.9999H65.9561L63.8981 24.8719H67.9441L65.9841 19.9999ZM71.8375 21.8479H72.9295V22.7999H72.9575C73.2561 22.4452 73.6015 22.1699 73.9935 21.9739C74.3948 21.7779 74.8335 21.6799 75.3095 21.6799C75.8228 21.6799 76.2895 21.7686 76.7095 21.9459C77.1388 22.1139 77.5028 22.3519 77.8015 22.6599C78.1001 22.9679 78.3335 23.3319 78.5015 23.7519C78.6695 24.1719 78.7535 24.6292 78.7535 25.1239C78.7535 25.6186 78.6695 26.0759 78.5015 26.4959C78.3335 26.9159 78.1001 27.2799 77.8015 27.5879C77.5121 27.8959 77.1668 28.1386 76.7655 28.3159C76.3641 28.4839 75.9348 28.5679 75.4775 28.5679C74.8895 28.5679 74.3715 28.4419 73.9235 28.1899C73.4848 27.9286 73.1628 27.6112 72.9575 27.2379H72.9295V31.5919H71.8375V21.8479ZM72.9295 25.1239C72.9295 25.4692 72.9808 25.7912 73.0835 26.0899C73.1955 26.3792 73.3541 26.6359 73.5595 26.8599C73.7648 27.0746 74.0075 27.2472 74.2875 27.3779C74.5768 27.4992 74.8988 27.5599 75.2535 27.5599C75.6081 27.5599 75.9255 27.4992 76.2055 27.3779C76.4948 27.2472 76.7421 27.0746 76.9475 26.8599C77.1528 26.6359 77.3068 26.3792 77.4095 26.0899C77.5215 25.7912 77.5775 25.4692 77.5775 25.1239C77.5775 24.7786 77.5215 24.4612 77.4095 24.1719C77.3068 23.8732 77.1528 23.6166 76.9475 23.4019C76.7421 23.1779 76.4948 23.0052 76.2055 22.8839C75.9255 22.7532 75.6081 22.6879 75.2535 22.6879C74.8988 22.6879 74.5768 22.7532 74.2875 22.8839C74.0075 23.0052 73.7648 23.1779 73.5595 23.4019C73.3541 23.6166 73.1955 23.8732 73.0835 24.1719C72.9808 24.4612 72.9295 24.7786 72.9295 25.1239ZM80.3961 21.8479H81.4881V22.7999H81.5161C81.8147 22.4452 82.1601 22.1699 82.5521 21.9739C82.9534 21.7779 83.3921 21.6799 83.8681 21.6799C84.3814 21.6799 84.8481 21.7686 85.2681 21.9459C85.6974 22.1139 86.0614 22.3519 86.3601 22.6599C86.6587 22.9679 86.8921 23.3319 87.0601 23.7519C87.2281 24.1719 87.3121 24.6292 87.3121 25.1239C87.3121 25.6186 87.2281 26.0759 87.0601 26.4959C86.8921 26.9159 86.6587 27.2799 86.3601 27.5879C86.0707 27.8959 85.7254 28.1386 85.3241 28.3159C84.9227 28.4839 84.4934 28.5679 84.0361 28.5679C83.4481 28.5679 82.9301 28.4419 82.4821 28.1899C82.0434 27.9286 81.7214 27.6112 81.5161 27.2379H81.4881V31.5919H80.3961V21.8479ZM81.4881 25.1239C81.4881 25.4692 81.5394 25.7912 81.6421 26.0899C81.7541 26.3792 81.9127 26.6359 82.1181 26.8599C82.3234 27.0746 82.5661 27.2472 82.8461 27.3779C83.1354 27.4992 83.4574 27.5599 83.8121 27.5599C84.1667 27.5599 84.4841 27.4992 84.7641 27.3779C85.0534 27.2472 85.3007 27.0746 85.5061 26.8599C85.7114 26.6359 85.8654 26.3792 85.9681 26.0899C86.0801 25.7912 86.1361 25.4692 86.1361 25.1239C86.1361 24.7786 86.0801 24.4612 85.9681 24.1719C85.8654 23.8732 85.7114 23.6166 85.5061 23.4019C85.3007 23.1779 85.0534 23.0052 84.7641 22.8839C84.4841 22.7532 84.1667 22.6879 83.8121 22.6879C83.4574 22.6879 83.1354 22.7532 82.8461 22.8839C82.5661 23.0052 82.3234 23.1779 82.1181 23.4019C81.9127 23.6166 81.7541 23.8732 81.6421 24.1719C81.5394 24.4612 81.4881 24.7786 81.4881 25.1239ZM97.8072 20.2379C97.6112 19.9206 97.3498 19.6919 97.0232 19.5519C96.6965 19.4026 96.3558 19.3279 96.0012 19.3279C95.7398 19.3279 95.4832 19.3606 95.2312 19.4259C94.9792 19.4912 94.7505 19.5892 94.5452 19.7199C94.3492 19.8506 94.1905 20.0232 94.0692 20.2379C93.9478 20.4526 93.8872 20.7046 93.8872 20.9939C93.8872 21.2179 93.9198 21.4186 93.9852 21.5959C94.0598 21.7639 94.1765 21.9179 94.3352 22.0579C94.4938 22.1979 94.7085 22.3286 94.9792 22.4499C95.2498 22.5712 95.5812 22.6926 95.9732 22.8139C96.3558 22.9352 96.7245 23.0659 97.0792 23.2059C97.4432 23.3459 97.7605 23.5232 98.0312 23.7379C98.3112 23.9526 98.5305 24.2232 98.6892 24.5499C98.8572 24.8672 98.9412 25.2686 98.9412 25.7539C98.9412 26.2486 98.8432 26.6779 98.6472 27.0419C98.4512 27.4059 98.1898 27.7092 97.8632 27.9519C97.5458 28.1852 97.1772 28.3579 96.7572 28.4699C96.3372 28.5912 95.9032 28.6519 95.4552 28.6519C95.1658 28.6519 94.8765 28.6239 94.5872 28.5679C94.2978 28.5212 94.0178 28.4466 93.7472 28.3439C93.4858 28.2319 93.2385 28.0919 93.0052 27.9239C92.7718 27.7466 92.5712 27.5319 92.4032 27.2799L93.4112 26.4539C93.6258 26.8179 93.9245 27.0932 94.3072 27.2799C94.6898 27.4666 95.0958 27.5599 95.5252 27.5599C95.7772 27.5599 96.0292 27.5226 96.2812 27.4479C96.5425 27.3732 96.7758 27.2659 96.9812 27.1259C97.1865 26.9766 97.3545 26.7946 97.4852 26.5799C97.6158 26.3652 97.6812 26.1179 97.6812 25.8379C97.6812 25.5299 97.6298 25.2826 97.5272 25.0959C97.4245 24.8999 97.2658 24.7319 97.0512 24.5919C96.8365 24.4519 96.5658 24.3259 96.2392 24.2139C95.9125 24.1019 95.5298 23.9712 95.0912 23.8219C94.7365 23.7099 94.4098 23.5839 94.1112 23.4439C93.8125 23.2946 93.5512 23.1172 93.3272 22.9119C93.1125 22.6972 92.9398 22.4452 92.8092 22.1559C92.6878 21.8572 92.6272 21.5026 92.6272 21.0919C92.6272 20.6159 92.7205 20.2006 92.9072 19.8459C93.0938 19.4912 93.3458 19.1972 93.6632 18.9639C93.9805 18.7212 94.3398 18.5392 94.7412 18.4179C95.1425 18.2966 95.5625 18.2359 96.0012 18.2359C96.5612 18.2359 97.0698 18.3246 97.5272 18.5019C97.9938 18.6699 98.4092 18.9686 98.7732 19.3979L97.8072 20.2379ZM104.27 22.7719H102.338V26.0479C102.338 26.2626 102.343 26.4632 102.352 26.6499C102.362 26.8272 102.399 26.9859 102.464 27.1259C102.53 27.2566 102.628 27.3639 102.758 27.4479C102.889 27.5226 103.076 27.5599 103.318 27.5599C103.477 27.5599 103.64 27.5412 103.808 27.5039C103.976 27.4666 104.135 27.4106 104.284 27.3359L104.326 28.3299C104.14 28.4139 103.93 28.4746 103.696 28.5119C103.472 28.5492 103.258 28.5679 103.052 28.5679C102.66 28.5679 102.348 28.5166 102.114 28.4139C101.881 28.3112 101.699 28.1666 101.568 27.9799C101.438 27.7932 101.349 27.5646 101.302 27.2939C101.265 27.0139 101.246 26.7059 101.246 26.3699V22.7719H99.8185V21.8479H101.246V19.9859H102.338V21.8479H104.27V22.7719ZM105.23 25.1239C105.23 24.6106 105.319 24.1439 105.496 23.7239C105.674 23.3039 105.916 22.9446 106.224 22.6459C106.532 22.3379 106.901 22.0999 107.33 21.9319C107.76 21.7639 108.226 21.6799 108.73 21.6799C109.234 21.6799 109.701 21.7639 110.13 21.9319C110.56 22.0999 110.928 22.3379 111.236 22.6459C111.544 22.9446 111.787 23.3039 111.964 23.7239C112.142 24.1439 112.23 24.6106 112.23 25.1239C112.23 25.6372 112.142 26.1039 111.964 26.5239C111.787 26.9439 111.544 27.3079 111.236 27.6159C110.928 27.9146 110.56 28.1479 110.13 28.3159C109.701 28.4839 109.234 28.5679 108.73 28.5679C108.226 28.5679 107.76 28.4839 107.33 28.3159C106.901 28.1479 106.532 27.9146 106.224 27.6159C105.916 27.3079 105.674 26.9439 105.496 26.5239C105.319 26.1039 105.23 25.6372 105.23 25.1239ZM106.406 25.1239C106.406 25.4692 106.458 25.7912 106.56 26.0899C106.672 26.3792 106.831 26.6359 107.036 26.8599C107.242 27.0746 107.484 27.2472 107.764 27.3779C108.054 27.4992 108.376 27.5599 108.73 27.5599C109.085 27.5599 109.402 27.4992 109.682 27.3779C109.972 27.2472 110.219 27.0746 110.424 26.8599C110.63 26.6359 110.784 26.3792 110.886 26.0899C110.998 25.7912 111.054 25.4692 111.054 25.1239C111.054 24.7786 110.998 24.4612 110.886 24.1719C110.784 23.8732 110.63 23.6166 110.424 23.4019C110.219 23.1779 109.972 23.0052 109.682 22.8839C109.402 22.7532 109.085 22.6879 108.73 22.6879C108.376 22.6879 108.054 22.7532 107.764 22.8839C107.484 23.0052 107.242 23.1779 107.036 23.4019C106.831 23.6166 106.672 23.8732 106.56 24.1719C106.458 24.4612 106.406 24.7786 106.406 25.1239ZM113.921 23.4019C113.921 23.1032 113.911 22.8232 113.893 22.5619C113.874 22.3006 113.865 22.0626 113.865 21.8479H114.901C114.901 22.0252 114.905 22.2026 114.915 22.3799C114.924 22.5572 114.929 22.7392 114.929 22.9259H114.957C115.031 22.7672 115.134 22.6132 115.265 22.4639C115.405 22.3146 115.568 22.1839 115.755 22.0719C115.941 21.9506 116.151 21.8572 116.385 21.7919C116.618 21.7172 116.87 21.6799 117.141 21.6799C117.215 21.6799 117.29 21.6846 117.365 21.6939C117.439 21.7032 117.514 21.7219 117.589 21.7499L117.519 22.8559C117.332 22.7999 117.136 22.7719 116.931 22.7719C116.259 22.7719 115.769 22.9912 115.461 23.4299C115.162 23.8592 115.013 24.4519 115.013 25.2079V28.3999H113.921V23.4019ZM124.449 27.2099C124.057 27.7139 123.627 28.0686 123.161 28.2739C122.694 28.4699 122.153 28.5679 121.537 28.5679C121.023 28.5679 120.561 28.4792 120.151 28.3019C119.74 28.1152 119.39 27.8679 119.101 27.5599C118.821 27.2519 118.601 26.8879 118.443 26.4679C118.293 26.0479 118.219 25.5999 118.219 25.1239C118.219 24.6199 118.303 24.1579 118.471 23.7379C118.639 23.3086 118.872 22.9446 119.171 22.6459C119.469 22.3379 119.824 22.0999 120.235 21.9319C120.645 21.7639 121.093 21.6799 121.579 21.6799C122.036 21.6799 122.456 21.7592 122.839 21.9179C123.221 22.0672 123.548 22.2912 123.819 22.5899C124.099 22.8792 124.313 23.2386 124.463 23.6679C124.612 24.0879 124.687 24.5686 124.687 25.1099V25.4599H119.395C119.413 25.7399 119.479 26.0106 119.591 26.2719C119.712 26.5239 119.866 26.7479 120.053 26.9439C120.239 27.1306 120.459 27.2799 120.711 27.3919C120.963 27.5039 121.238 27.5599 121.537 27.5599C122.013 27.5599 122.414 27.4759 122.741 27.3079C123.067 27.1399 123.361 26.8926 123.623 26.5659L124.449 27.2099ZM123.511 24.5359C123.492 23.9759 123.31 23.5279 122.965 23.1919C122.619 22.8559 122.143 22.6879 121.537 22.6879C120.93 22.6879 120.44 22.8559 120.067 23.1919C119.693 23.5279 119.469 23.9759 119.395 24.5359H123.511Z" fill="#C7CBCF"/>
<rect x="0.5" y="0.5" width="152.6" height="47" rx="7.5" stroke="#C7CBCF"/>
<defs>
<clipPath id="clip0">
<rect width="14" height="16" fill="white" transform="translate(34.0001 16.3999)"/>
</clipPath>
</defs>
</svg>
