<svg width="166" height="166" viewBox="0 0 166 166" fill="none" xmlns="http://www.w3.org/2000/svg">
<path fill-rule="evenodd" clip-rule="evenodd" d="M78.0787 0.000480164C74.8733 0.0396323 71.0061 0.54741 69.0484 0.885142C57.3284 2.90423 46.0226 7.44454 36.1813 14.1858C21.205 24.4436 9.68242 39.763 4.04523 57.0296C-2.58679 77.3453 -0.997788 100.111 8.32419 119.238C17.1801 137.41 32.838 152.123 51.5225 159.804C67.239 166.264 84.829 167.693 101.295 163.995C121.338 159.492 139.287 147.347 151.016 130.693C159.803 118.215 165.007 103.287 165.992 88.0445C166.069 86.733 165.604 85.4467 164.704 84.4889C163.805 83.5316 162.551 82.9868 161.238 82.9836L160.363 82.9816C154.554 82.968 145.723 82.9473 140.389 82.9466C137.903 82.9409 135.831 84.8509 135.633 87.3306C135.395 90.1661 134.932 92.9763 134.24 95.7346C131.036 108.515 122.812 119.971 111.734 127.174C100.459 134.505 86.4005 137.232 73.2157 134.743C60.0536 132.259 48.1436 124.589 40.3379 113.845C33.8286 104.887 30.2649 93.8193 30.2822 82.7655C30.305 68.3982 36.441 54.287 46.831 44.4631C55.4824 36.2837 66.8743 31.2183 78.7779 30.2223C81.2486 30.0145 83.149 27.9477 83.1513 25.4662L83.1524 23.9856C83.1567 18.3531 83.163 10.0561 83.1601 4.76274C83.1614 3.44282 82.6154 2.18081 81.652 1.27849C80.6891 0.375571 79.402 -0.0156839 78.0787 0.000480164ZM165.893 26.7561C165.893 12.0763 153.984 0.157763 139.316 0.157763C124.647 0.157763 112.738 12.0763 112.738 26.7561C112.738 41.4366 124.647 53.3551 139.316 53.3551C153.984 53.3551 165.893 41.4366 165.893 26.7561Z" fill="#FE3E6D"/>
</svg>
