<svg width="154" height="48" viewBox="0 0 154 48" fill="none" xmlns="http://www.w3.org/2000/svg">
<path d="M41.8339 24.2007L44.2772 21.6915L35.5407 16.5984C35.0799 16.3307 34.6737 16.3494 34.3948 16.5611L41.8339 24.2007Z" fill="#C7CBCF"/>
<path d="M34.2002 16.7505C34.0729 16.9373 34.0001 17.1926 34.0001 17.5163V31.2825C34.0001 31.6001 34.0729 31.8554 34.2002 32.0422L41.6514 24.3901L34.2002 16.7505Z" fill="#C7CBCF"/>
<path d="M41.8407 24.5957L34.4016 32.2415C34.6866 32.4532 35.0867 32.4657 35.5414 32.1979L44.278 27.0987L41.8407 24.5957Z" fill="#C7CBCF"/>
<path d="M47.3628 23.495L44.5193 21.8389L42.0274 24.3979L44.5193 26.9568L47.3688 25.2944C48.2116 24.8026 48.2116 23.9931 47.3628 23.495Z" fill="#C7CBCF"/>
<path d="M62.2321 18.4879H65.1721C65.6295 18.4879 66.0635 18.5346 66.4741 18.6279C66.8941 18.7119 67.2628 18.8612 67.5801 19.0759C67.9068 19.2812 68.1635 19.5612 68.3501 19.9159C68.5461 20.2612 68.6441 20.6906 68.6441 21.2039C68.6441 21.7452 68.5415 22.1932 68.3361 22.5479C68.1308 22.9026 67.8648 23.1826 67.5381 23.3879C67.2208 23.5932 66.8708 23.7379 66.4881 23.8219C66.1055 23.9059 65.7415 23.9479 65.3961 23.9479H63.4081V28.3999H62.2321V18.4879ZM63.4081 22.8559H65.3961C65.9841 22.8559 66.4601 22.7252 66.8241 22.4639C67.1975 22.1932 67.3841 21.7779 67.3841 21.2179C67.3841 20.6579 67.1975 20.2472 66.8241 19.9859C66.4601 19.7152 65.9841 19.5799 65.3961 19.5799H63.4081V22.8559ZM70.433 17.8159H71.525V28.3999H70.433V17.8159ZM73.6142 22.6879C73.9502 22.3426 74.3469 22.0906 74.8042 21.9319C75.2709 21.7639 75.7422 21.6799 76.2182 21.6799C77.1889 21.6799 77.8889 21.9086 78.3182 22.3659C78.7476 22.8232 78.9622 23.5186 78.9622 24.4519V27.2659C78.9622 27.4526 78.9716 27.6486 78.9902 27.8539C79.0089 28.0499 79.0322 28.2319 79.0602 28.3999H78.0102C77.9729 28.2506 77.9496 28.0872 77.9402 27.9099C77.9402 27.7232 77.9402 27.5599 77.9402 27.4199H77.9122C77.6976 27.7559 77.4082 28.0312 77.0442 28.2459C76.6896 28.4606 76.2602 28.5679 75.7562 28.5679C75.4202 28.5679 75.1029 28.5259 74.8042 28.4419C74.5149 28.3579 74.2582 28.2366 74.0342 28.0779C73.8196 27.9099 73.6469 27.7046 73.5162 27.4619C73.3856 27.2192 73.3202 26.9392 73.3202 26.6219C73.3202 26.0806 73.4602 25.6559 73.7402 25.3479C74.0202 25.0399 74.3656 24.8112 74.7762 24.6619C75.1962 24.5126 75.6442 24.4192 76.1202 24.3819C76.6056 24.3446 77.0489 24.3259 77.4502 24.3259H77.8702V24.1299C77.8702 23.6539 77.7256 23.2946 77.4362 23.0519C77.1562 22.8092 76.7596 22.6879 76.2462 22.6879C75.8916 22.6879 75.5416 22.7486 75.1962 22.8699C74.8602 22.9819 74.5616 23.1592 74.3002 23.4019L73.6142 22.6879ZM76.7782 25.2499C76.0782 25.2499 75.5229 25.3479 75.1122 25.5439C74.7016 25.7399 74.4962 26.0619 74.4962 26.5099C74.4962 26.9206 74.6316 27.2146 74.9022 27.3919C75.1822 27.5599 75.5276 27.6439 75.9382 27.6439C76.2556 27.6439 76.5309 27.5926 76.7642 27.4899C77.0069 27.3779 77.2076 27.2332 77.3662 27.0559C77.5249 26.8786 77.6462 26.6732 77.7302 26.4399C77.8142 26.1972 77.8609 25.9406 77.8702 25.6699V25.2499H76.7782ZM83.366 29.8979C83.254 30.1779 83.1373 30.4299 83.016 30.6539C82.904 30.8872 82.764 31.0832 82.596 31.2419C82.4373 31.4099 82.2413 31.5359 82.008 31.6199C81.784 31.7132 81.5087 31.7599 81.182 31.7599C81.0233 31.7599 80.8553 31.7506 80.678 31.7319C80.51 31.7132 80.3513 31.6666 80.202 31.5919L80.342 30.6399C80.454 30.6866 80.5707 30.7146 80.692 30.7239C80.8133 30.7426 80.9533 30.7519 81.112 30.7519C81.4667 30.7519 81.728 30.6539 81.896 30.4579C82.064 30.2619 82.2087 30.0006 82.33 29.6739L82.778 28.4419L80.062 21.8479H81.336L83.366 26.9859H83.394L85.34 21.8479H86.53L83.366 29.8979ZM96.5084 20.2379C96.3124 19.9206 96.0511 19.6919 95.7244 19.5519C95.3977 19.4026 95.0571 19.3279 94.7024 19.3279C94.4411 19.3279 94.1844 19.3606 93.9324 19.4259C93.6804 19.4912 93.4517 19.5892 93.2464 19.7199C93.0504 19.8506 92.8917 20.0232 92.7704 20.2379C92.6491 20.4526 92.5884 20.7046 92.5884 20.9939C92.5884 21.2179 92.6211 21.4186 92.6864 21.5959C92.7611 21.7639 92.8777 21.9179 93.0364 22.0579C93.1951 22.1979 93.4097 22.3286 93.6804 22.4499C93.9511 22.5712 94.2824 22.6926 94.6744 22.8139C95.0571 22.9352 95.4257 23.0659 95.7804 23.2059C96.1444 23.3459 96.4617 23.5232 96.7324 23.7379C97.0124 23.9526 97.2317 24.2232 97.3904 24.5499C97.5584 24.8672 97.6424 25.2686 97.6424 25.7539C97.6424 26.2486 97.5444 26.6779 97.3484 27.0419C97.1524 27.4059 96.8911 27.7092 96.5644 27.9519C96.2471 28.1852 95.8784 28.3579 95.4584 28.4699C95.0384 28.5912 94.6044 28.6519 94.1564 28.6519C93.8671 28.6519 93.5777 28.6239 93.2884 28.5679C92.9991 28.5212 92.7191 28.4466 92.4484 28.3439C92.1871 28.2319 91.9397 28.0919 91.7064 27.9239C91.4731 27.7466 91.2724 27.5319 91.1044 27.2799L92.1124 26.4539C92.3271 26.8179 92.6257 27.0932 93.0084 27.2799C93.3911 27.4666 93.7971 27.5599 94.2264 27.5599C94.4784 27.5599 94.7304 27.5226 94.9824 27.4479C95.2437 27.3732 95.4771 27.2659 95.6824 27.1259C95.8877 26.9766 96.0557 26.7946 96.1864 26.5799C96.3171 26.3652 96.3824 26.1179 96.3824 25.8379C96.3824 25.5299 96.3311 25.2826 96.2284 25.0959C96.1257 24.8999 95.9671 24.7319 95.7524 24.5919C95.5377 24.4519 95.2671 24.3259 94.9404 24.2139C94.6137 24.1019 94.2311 23.9712 93.7924 23.8219C93.4377 23.7099 93.1111 23.5839 92.8124 23.4439C92.5137 23.2946 92.2524 23.1172 92.0284 22.9119C91.8137 22.6972 91.6411 22.4452 91.5104 22.1559C91.3891 21.8572 91.3284 21.5026 91.3284 21.0919C91.3284 20.6159 91.4217 20.2006 91.6084 19.8459C91.7951 19.4912 92.0471 19.1972 92.3644 18.9639C92.6817 18.7212 93.0411 18.5392 93.4424 18.4179C93.8437 18.2966 94.2637 18.2359 94.7024 18.2359C95.2624 18.2359 95.7711 18.3246 96.2284 18.5019C96.6951 18.6699 97.1104 18.9686 97.4744 19.3979L96.5084 20.2379ZM102.972 22.7719H101.04V26.0479C101.04 26.2626 101.044 26.4632 101.054 26.6499C101.063 26.8272 101.1 26.9859 101.166 27.1259C101.231 27.2566 101.329 27.3639 101.46 27.4479C101.59 27.5226 101.777 27.5599 102.02 27.5599C102.178 27.5599 102.342 27.5412 102.51 27.5039C102.678 27.4666 102.836 27.4106 102.986 27.3359L103.028 28.3299C102.841 28.4139 102.631 28.4746 102.398 28.5119C102.174 28.5492 101.959 28.5679 101.754 28.5679C101.362 28.5679 101.049 28.5166 100.816 28.4139C100.582 28.3112 100.4 28.1666 100.27 27.9799C100.139 27.7932 100.05 27.5646 100.004 27.2939C99.9664 27.0139 99.9477 26.7059 99.9477 26.3699V22.7719H98.5197V21.8479H99.9477V19.9859H101.04V21.8479H102.972V22.7719ZM103.932 25.1239C103.932 24.6106 104.02 24.1439 104.198 23.7239C104.375 23.3039 104.618 22.9446 104.926 22.6459C105.234 22.3379 105.602 22.0999 106.032 21.9319C106.461 21.7639 106.928 21.6799 107.432 21.6799C107.936 21.6799 108.402 21.7639 108.832 21.9319C109.261 22.0999 109.63 22.3379 109.938 22.6459C110.246 22.9446 110.488 23.3039 110.666 23.7239C110.843 24.1439 110.932 24.6106 110.932 25.1239C110.932 25.6372 110.843 26.1039 110.666 26.5239C110.488 26.9439 110.246 27.3079 109.938 27.6159C109.63 27.9146 109.261 28.1479 108.832 28.3159C108.402 28.4839 107.936 28.5679 107.432 28.5679C106.928 28.5679 106.461 28.4839 106.032 28.3159C105.602 28.1479 105.234 27.9146 104.926 27.6159C104.618 27.3079 104.375 26.9439 104.198 26.5239C104.02 26.1039 103.932 25.6372 103.932 25.1239ZM105.108 25.1239C105.108 25.4692 105.159 25.7912 105.262 26.0899C105.374 26.3792 105.532 26.6359 105.738 26.8599C105.943 27.0746 106.186 27.2472 106.466 27.3779C106.755 27.4992 107.077 27.5599 107.432 27.5599C107.786 27.5599 108.104 27.4992 108.384 27.3779C108.673 27.2472 108.92 27.0746 109.126 26.8599C109.331 26.6359 109.485 26.3792 109.588 26.0899C109.7 25.7912 109.756 25.4692 109.756 25.1239C109.756 24.7786 109.7 24.4612 109.588 24.1719C109.485 23.8732 109.331 23.6166 109.126 23.4019C108.92 23.1779 108.673 23.0052 108.384 22.8839C108.104 22.7532 107.786 22.6879 107.432 22.6879C107.077 22.6879 106.755 22.7532 106.466 22.8839C106.186 23.0052 105.943 23.1779 105.738 23.4019C105.532 23.6166 105.374 23.8732 105.262 24.1719C105.159 24.4612 105.108 24.7786 105.108 25.1239ZM112.622 23.4019C112.622 23.1032 112.613 22.8232 112.594 22.5619C112.575 22.3006 112.566 22.0626 112.566 21.8479H113.602C113.602 22.0252 113.607 22.2026 113.616 22.3799C113.625 22.5572 113.63 22.7392 113.63 22.9259H113.658C113.733 22.7672 113.835 22.6132 113.966 22.4639C114.106 22.3146 114.269 22.1839 114.456 22.0719C114.643 21.9506 114.853 21.8572 115.086 21.7919C115.319 21.7172 115.571 21.6799 115.842 21.6799C115.917 21.6799 115.991 21.6846 116.066 21.6939C116.141 21.7032 116.215 21.7219 116.29 21.7499L116.22 22.8559C116.033 22.7999 115.837 22.7719 115.632 22.7719C114.96 22.7719 114.47 22.9912 114.162 23.4299C113.863 23.8592 113.714 24.4519 113.714 25.2079V28.3999H112.622V23.4019ZM123.15 27.2099C122.758 27.7139 122.329 28.0686 121.862 28.2739C121.395 28.4699 120.854 28.5679 120.238 28.5679C119.725 28.5679 119.263 28.4792 118.852 28.3019C118.441 28.1152 118.091 27.8679 117.802 27.5599C117.522 27.2519 117.303 26.8879 117.144 26.4679C116.995 26.0479 116.92 25.5999 116.92 25.1239C116.92 24.6199 117.004 24.1579 117.172 23.7379C117.34 23.3086 117.573 22.9446 117.872 22.6459C118.171 22.3379 118.525 22.0999 118.936 21.9319C119.347 21.7639 119.795 21.6799 120.28 21.6799C120.737 21.6799 121.157 21.7592 121.54 21.9179C121.923 22.0672 122.249 22.2912 122.52 22.5899C122.8 22.8792 123.015 23.2386 123.164 23.6679C123.313 24.0879 123.388 24.5686 123.388 25.1099V25.4599H118.096C118.115 25.7399 118.18 26.0106 118.292 26.2719C118.413 26.5239 118.567 26.7479 118.754 26.9439C118.941 27.1306 119.16 27.2799 119.412 27.3919C119.664 27.5039 119.939 27.5599 120.238 27.5599C120.714 27.5599 121.115 27.4759 121.442 27.3079C121.769 27.1399 122.063 26.8926 122.324 26.5659L123.15 27.2099ZM122.212 24.5359C122.193 23.9759 122.011 23.5279 121.666 23.1919C121.321 22.8559 120.845 22.6879 120.238 22.6879C119.631 22.6879 119.141 22.8559 118.768 23.1919C118.395 23.5279 118.171 23.9759 118.096 24.5359H122.212Z" fill="#C7CBCF"/>
<rect x="0.5" y="0.5" width="152.6" height="47" rx="7.5" stroke="#C7CBCF"/>
</svg>
